<?xml version="1.0" encoding="UTF-8" standalone="no"?><!DOCTYPE svg PUBLIC "-//W3C//DTD SVG 1.1//EN" "http://www.w3.org/Graphics/SVG/1.1/DTD/svg11.dtd"><svg width="100%" height="100%" viewBox="0 0 2917 2917" version="1.1" xmlns="http://www.w3.org/2000/svg" xmlns:xlink="http://www.w3.org/1999/xlink" xml:space="preserve" xmlns:serif="http://www.serif.com/" style="fill-rule:evenodd;clip-rule:evenodd;stroke-linejoin:round;stroke-miterlimit:2;"><g><path d="M1393,407.164c-396.663,-0 -742,221.662 -921.667,546c46.663,-4.671 93.325,-9.326 140.009,-9.326c184.325,-0 359.325,41.991 515.666,114.337c18.669,-67.658 81.675,-116.666 156.334,-116.666c84,-0 154.004,63.004 163.329,144.662c109.666,37.337 221.662,91 315.008,154.004c25.668,18.669 53.663,46.663 53.663,79.329l-0,4.672l209.991,39.664l0,77c0,147.004 -133.008,268.325 -279.996,268.325c-403.662,34.994 -756,275.325 -942.666,613.667c170.329,118.996 373.341,186.671 595,186.671c581,-0 1047.67,-469 1047.67,-1050c-0.032,-581 -471.375,-1052.33 -1052.38,-1052.33l0.038,-0.005Z" style="fill-rule:nonzero;"/><path d="M1605.33,1305.5c0,32.211 -26.106,58.334 -58.333,58.334c-32.211,-0 -58.333,-26.123 -58.333,-58.334c-0,-32.226 26.122,-58.333 58.333,-58.333c32.227,-0 58.333,26.107 58.333,58.333" style="fill-rule:nonzero;"/></g></svg>